/* XPM */
static const char * analogue_clock_01_xpm[] = {
"20 20 194 2",
"  	c None",
". 	c #333333",
"+ 	c #535353",
"@ 	c #5B5B5B",
"# 	c #505050",
"$ 	c #3A3A3A",
"% 	c #4E4E4E",
"& 	c #A4A4A4",
"* 	c #C1C0C0",
"= 	c #B7B6B6",
"- 	c #979696",
"; 	c #B2B0B1",
"> 	c #B3B2B2",
", 	c #9B9A9A",
"' 	c #121212",
") 	c #020101",
"! 	c #000000",
"~ 	c #7E7E7E",
"{ 	c #F8F8F8",
"] 	c #E8E8E8",
"^ 	c #E9E8E9",
"/ 	c #858483",
"( 	c #3B373A",
"_ 	c #8E8C8C",
": 	c #E3E2E2",
"< 	c #575757",
"[ 	c #2C2A2A",
"} 	c #919090",
"| 	c #080808",
"1 	c #8C8C8C",
"2 	c #FFFFFF",
"3 	c #E4E4E4",
"4 	c #E4E3E3",
"5 	c #ABA8A9",
"6 	c #686667",
"7 	c #B1AFB0",
"8 	c #080606",
"9 	c #626060",
"0 	c #CBC9C9",
"a 	c #C9C8C8",
"b 	c #020303",
"c 	c #5D5D5D",
"d 	c #FDFDFD",
"e 	c #EDEDED",
"f 	c #E7E7E7",
"g 	c #E5E4E4",
"h 	c #E0E0E0",
"i 	c #E7E5E4",
"j 	c #F5F4F4",
"k 	c #C7C6C6",
"l 	c #222020",
"m 	c #2F2A2A",
"n 	c #A6A7A7",
"o 	c #C8C6C6",
"p 	c #BFBDBD",
"q 	c #908F8F",
"r 	c #040404",
"s 	c #B7B7B7",
"t 	c #F6F6F6",
"u 	c #EBEBEB",
"v 	c #E9E9E9",
"w 	c #DEDCDC",
"x 	c #D6D5D5",
"y 	c #565353",
"z 	c #1B1717",
"A 	c #676666",
"B 	c #D9D8D8",
"C 	c #BEBDBD",
"D 	c #BAB7B7",
"E 	c #AFAEAE",
"F 	c #3E3D3D",
"G 	c #4B4B4B",
"H 	c #DADADA",
"I 	c #F2F2F2",
"J 	c #ECECEC",
"K 	c #DDDBDB",
"L 	c #949393",
"M 	c #322F2F",
"N 	c #1B1A1A",
"O 	c #DCDBDB",
"P 	c #C4C3C3",
"Q 	c #C4C2C2",
"R 	c #C5C4C4",
"S 	c #B5B4B4",
"T 	c #656565",
"U 	c #0A0A0A",
"V 	c #6A6A6A",
"W 	c #E2E2E2",
"X 	c #D5D3D3",
"Y 	c #545151",
"Z 	c #060202",
"` 	c #959494",
" .	c #B4B3B3",
"..	c #A9A8A8",
"+.	c #807E7E",
"@.	c #4F4E4E",
"#.	c #8D8C8C",
"$.	c #828081",
"%.	c #161616",
"&.	c #636363",
"*.	c #7D7C7D",
"=.	c #AFAFAF",
"-.	c #F0F0F0",
";.	c #EBEAEA",
">.	c #D2D1D1",
",.	c #8A8888",
"'.	c #090707",
").	c #181414",
"!.	c #3B3939",
"~.	c #282626",
"{.	c #2B2929",
"].	c #535252",
"^.	c #9E9E9E",
"/.	c #423F40",
"(.	c #514F50",
"_.	c #1A1A1A",
":.	c #5C5C5C",
"<.	c #515051",
"[.	c #949494",
"}.	c #A4A3A3",
"|.	c #383737",
"1.	c #151313",
"2.	c #0B0909",
"3.	c #5A5858",
"4.	c #838181",
"5.	c #ACABAB",
"6.	c #CDCBCB",
"7.	c #C1C1C1",
"8.	c #232121",
"9.	c #434242",
"0.	c #191919",
"a.	c #5F5F5F",
"b.	c #D7D7D7",
"c.	c #D5D5D5",
"d.	c #F0EFEF",
"e.	c #8E8E8E",
"f.	c #CECDCD",
"g.	c #CBCACA",
"h.	c #C6C5C5",
"i.	c #B9B7B7",
"j.	c #A1A0A0",
"k.	c #747373",
"l.	c #131313",
"m.	c #3C3C3C",
"n.	c #CDCDCD",
"o.	c #D4D3D3",
"p.	c #EFEEEE",
"q.	c #D1D0D0",
"r.	c #CAC9C9",
"s.	c #B9B8B8",
"t.	c #B0AEAE",
"u.	c #5B5A5A",
"v.	c #040303",
"w.	c #A6A6A6",
"x.	c #F1F1F1",
"y.	c #EAE9E9",
"z.	c #D5D4D4",
"A.	c #D3D2D2",
"B.	c #C5C3C3",
"C.	c #B0AFAF",
"D.	c #2B2B2B",
"E.	c #303030",
"F.	c #F5F5F5",
"G.	c #E9E9E8",
"H.	c #DDDCDC",
"I.	c #CFCECE",
"J.	c #BAB9B9",
"K.	c #D9D7D7",
"L.	c #555454",
"M.	c #282828",
"N.	c #E6E6E6",
"O.	c #E5E5E5",
"P.	c #E1E0E0",
"Q.	c #7B797A",
"R.	c #9F9E9F",
"S.	c #CDCCCC",
"T.	c #C2C1C1",
"U.	c #DFDEDE",
"V.	c #DFDFDF",
"W.	c #282526",
"X.	c #6B6969",
"Y.	c #C8C7C7",
"Z.	c #5D5C5C",
"`.	c #101010",
" +	c #717171",
".+	c #AAA9A9",
"++	c #777675",
"@+	c #8B8A8A",
"#+	c #6C6A6A",
"$+	c #363535",
"%+	c #343434",
"&+	c #434343",
"*+	c #363636",
"=+	c #232222",
"                                        ",
"              . + @ # $                 ",
"          % & * = - ; > , ' )           ",
"      ! ~ { ] ^ / ( _ : < [ } |         ",
"      1 2 ] 3 4 5 6 7 - 8 9 0 a b       ",
"    c d e f g h i j k l m n o p q r     ",
"    s t u v g h w x y z A B C D E F     ",
"  G H I J v g h K L M N O P Q R S T U   ",
"  V f e J v g W X Y Z `  ...+.@.#.$.%.  ",
"  &.*.=.-.v ;.>.,.'.).!.~.{.].^./.(._.  ",
"  :.<.[.I v }.|.1.2.3.4.5.C 6.7.8.9.0.  ",
"  a.b.f J ] c.d.! e.B f.g.h.C i.j.k.l.  ",
"  m.n.I J ] f o.` p.q.f.r.R C s.t.u.v.  ",
"    w.x.J ] 3 : y.z.A.f.r.B.C = C.D.    ",
"    E.F.v v g h w G.H.I.r.B.J.K.L.!     ",
"      M.2 N.O.P.A.Q.R.S.a T.U.A !       ",
"        ' H P.V.6.W.X.a Y.* Z.!         ",
"          `. +- .+++@+` #+$+!           ",
"                %+&+*+=+                ",
"                                        "};
