/* XPM */
static const char * bomber_xpm[] = {
"48 48 472 2",
"  	c None",
". 	c #020502",
"+ 	c #091508",
"@ 	c #061106",
"# 	c #010201",
"$ 	c #070A07",
"% 	c #091709",
"& 	c #203D1F",
"* 	c #1C381B",
"= 	c #020702",
"- 	c #000000",
"; 	c #070E07",
"> 	c #618160",
", 	c #A2BFA2",
"' 	c #9FBC9E",
") 	c #8DAE8C",
"! 	c #162616",
"~ 	c #0D170C",
"{ 	c #779876",
"] 	c #98B797",
"^ 	c #94B493",
"/ 	c #99B798",
"( 	c #5B7C5B",
"_ 	c #0B0D0B",
": 	c #1C2D1C",
"< 	c #9CB89B",
"[ 	c #ABC4AA",
"} 	c #A4BFA3",
"| 	c #678A66",
"1 	c #1B201B",
"2 	c #050605",
"3 	c #040B03",
"4 	c #020902",
"5 	c #1F331E",
"6 	c #517A50",
"7 	c #B5CCB5",
"8 	c #9CBA9B",
"9 	c #8FAF8E",
"0 	c #2A342A",
"a 	c #0B1C0B",
"b 	c #131D12",
"c 	c #212820",
"d 	c #3C5F3B",
"e 	c #5E875D",
"f 	c #2D4E2C",
"g 	c #040504",
"h 	c #253F24",
"i 	c #618960",
"j 	c #92B291",
"k 	c #70966F",
"l 	c #A7C2A6",
"m 	c #374837",
"n 	c #223F22",
"o 	c #192419",
"p 	c #2A3A29",
"q 	c #476F46",
"r 	c #82A681",
"s 	c #658964",
"t 	c #222622",
"u 	c #0D110D",
"v 	c #2E4D2D",
"w 	c #7B9F7A",
"x 	c #97B696",
"y 	c #95B594",
"z 	c #81A580",
"A 	c #506B4F",
"B 	c #283527",
"C 	c #020B02",
"D 	c #0C220C",
"E 	c #101210",
"F 	c #2F4A2E",
"G 	c #87A986",
"H 	c #688D67",
"I 	c #333932",
"J 	c #0D130D",
"K 	c #315431",
"L 	c #8BAD8A",
"M 	c #96B595",
"N 	c #91B190",
"O 	c #8CAE8B",
"P 	c #A5C1A4",
"Q 	c #769375",
"R 	c #131413",
"S 	c #080908",
"T 	c #102A10",
"U 	c #0A1F09",
"V 	c #1C371C",
"W 	c #010101",
"X 	c #192218",
"Y 	c #375A36",
"Z 	c #719770",
"` 	c #444B44",
" .	c #121C12",
"..	c #1E3F1D",
"+.	c #8FB08E",
"@.	c #A6C1A5",
"#.	c #87A886",
"$.	c #202820",
"%.	c #020202",
"&.	c #0A0B0A",
"*.	c #223E22",
"=.	c #112D11",
"-.	c #0E280E",
";.	c #2E432D",
">.	c #2A3929",
",.	c #446D44",
"'.	c #7FA37E",
").	c #80A47F",
"!.	c #505B50",
"~.	c #0D1A0D",
"{.	c #385F37",
"].	c #374736",
"^.	c #3A4D39",
"/.	c #234722",
"(.	c #325931",
"_.	c #1F411E",
":.	c #537C52",
"<.	c #86A884",
"[.	c #5D705C",
"}.	c #1A2C19",
"|.	c #3A6339",
"1.	c #769C75",
"2.	c #BDD2BC",
"3.	c #314E30",
"4.	c #202520",
"5.	c #284728",
"6.	c #3F683F",
"7.	c #2F562E",
"8.	c #214520",
"9.	c #091E09",
"0.	c #749A73",
"a.	c #728971",
"b.	c #080808",
"c.	c #1A2C1A",
"d.	c #3F683E",
"e.	c #6D946C",
"f.	c #B9D0B9",
"g.	c #779976",
"h.	c #161815",
"i.	c #161916",
"j.	c #5A7F59",
"k.	c #6B926A",
"l.	c #0C230B",
"m.	c #3D663C",
"n.	c #1C2A1C",
"o.	c #233922",
"p.	c #3C653B",
"q.	c #8AAC89",
"r.	c #7A9E79",
"s.	c #588157",
"t.	c #365D34",
"u.	c #3C643B",
"v.	c #152515",
"w.	c #171817",
"x.	c #3F603E",
"y.	c #7DA17C",
"z.	c #9DBB9C",
"A.	c #010501",
"B.	c #030D03",
"C.	c #060E06",
"D.	c #264025",
"E.	c #466F44",
"F.	c #A1BEA0",
"G.	c #AAC5AA",
"H.	c #3E633C",
"I.	c #081708",
"J.	c #030803",
"K.	c #181B18",
"L.	c #416440",
"M.	c #AAC3A9",
"N.	c #8B998A",
"O.	c #365E35",
"P.	c #9BB99A",
"Q.	c #4A7349",
"R.	c #0A1D0A",
"S.	c #080A08",
"T.	c #264225",
"U.	c #527B51",
"V.	c #6C936B",
"W.	c #B2CBB2",
"X.	c #CCDDCC",
"Y.	c #4E774D",
"Z.	c #DFEADF",
"`.	c #0B210B",
" +	c #010200",
".+	c #161A15",
"++	c #3C5F3A",
"@+	c #8B9F8B",
"#+	c #373737",
"$+	c #192618",
"%+	c #7D9D7C",
"&+	c #93B392",
"*+	c #628A61",
"=+	c #345B33",
"-+	c #081A07",
";+	c #030C03",
">+	c #010301",
",+	c #0B0F0B",
"'+	c #213F20",
")+	c #598258",
"!+	c #88AA87",
"~+	c #D5E3D4",
"{+	c #6B8A6A",
"]+	c #1E2C1D",
"^+	c #1E3C1E",
"/+	c #224621",
"(+	c #112B10",
"_+	c #030502",
":+	c #0D110C",
"<+	c #3E603D",
"[+	c #7CA07B",
"}+	c #646D63",
"|+	c #060606",
"1+	c #0A0C0A",
"2+	c #284028",
"3+	c #081C08",
"4+	c #84A783",
"5+	c #ADC6AC",
"6+	c #4F784E",
"7+	c #1C3B1B",
"8+	c #000200",
"9+	c #161E16",
"0+	c #2A4C29",
"a+	c #5C855B",
"b+	c #688F67",
"c+	c #D8E5D8",
"d+	c #94B393",
"e+	c #141E14",
"f+	c #070807",
"g+	c #223422",
"h+	c #486547",
"i+	c #0D1D0D",
"j+	c #0D120D",
"k+	c #335532",
"l+	c #879F87",
"m+	c #3B3C3B",
"n+	c #1F281F",
"o+	c #1C3A1B",
"p+	c #A1BDA0",
"q+	c #163315",
"r+	c #162D16",
"s+	c #1C3C1B",
"t+	c #578056",
"u+	c #1A2E1A",
"v+	c #1E201E",
"w+	c #3D613C",
"x+	c #788577",
"y+	c #121212",
"z+	c #070907",
"A+	c #2B412A",
"B+	c #375F36",
"C+	c #779D76",
"D+	c #6F956E",
"E+	c #284E27",
"F+	c #40693F",
"G+	c #BED3BD",
"H+	c #1A341A",
"I+	c #090A09",
"J+	c #385438",
"K+	c #678E65",
"L+	c #799778",
"M+	c #4F534F",
"N+	c #212A21",
"O+	c #1B391B",
"P+	c #254924",
"Q+	c #376036",
"R+	c #A8C3A7",
"S+	c #C9DBC8",
"T+	c #DEE9DE",
"U+	c #C5D8C4",
"V+	c #C2D6C1",
"W+	c #162F15",
"X+	c #020501",
"Y+	c #030303",
"Z+	c #2C312C",
"`+	c #525851",
" @	c #181818",
".@	c #0C0E0C",
"+@	c #122C11",
"@@	c #264B25",
"#@	c #3B643A",
"$@	c #456E43",
"%@	c #B1C4B1",
"&@	c #2A4E29",
"*@	c #1A3B19",
"=@	c #0D260D",
"-@	c #122112",
";@	c #415D40",
">@	c #4C754B",
",@	c #294F28",
"'@	c #204420",
")@	c #567F55",
"!@	c #B4CCB3",
"~@	c #122812",
"{@	c #1E271E",
"]@	c #183417",
"^@	c #1B3B1A",
"/@	c #163515",
"(@	c #1E411E",
"_@	c #293D29",
":@	c #668D64",
"<@	c #759B74",
"[@	c #547D53",
"}@	c #315830",
"|@	c #1A3219",
"1@	c #0E180E",
"2@	c #050705",
"3@	c #3E463E",
"4@	c #0F160E",
"5@	c #273B26",
"6@	c #416A40",
"7@	c #6A9169",
"8@	c #5D865C",
"9@	c #648B62",
"0@	c #477146",
"a@	c #C3D6C2",
"b@	c #729871",
"c@	c #041003",
"d@	c #030B02",
"e@	c #142814",
"f@	c #446D42",
"g@	c #C4D7C3",
"h@	c #BCD1BB",
"i@	c #2F452F",
"j@	c #BACFB9",
"k@	c #789078",
"l@	c #446544",
"m@	c #173616",
"n@	c #FFFFFF",
"o@	c #D0E0CF",
"p@	c #497348",
"q@	c #294129",
"r@	c #ACC6AB",
"s@	c #AFC8AE",
"t@	c #2D542C",
"u@	c #3B5E39",
"v@	c #192219",
"w@	c #2D412C",
"x@	c #264926",
"y@	c #2E552D",
"z@	c #487247",
"A@	c #193918",
"B@	c #172D16",
"C@	c #4D764C",
"D@	c #B7CEB6",
"E@	c #EAF1EA",
"F@	c #5D855C",
"G@	c #0B1D0B",
"H@	c #070C07",
"I@	c #333C33",
"J@	c #334E32",
"K@	c #234622",
"L@	c #0B220B",
"M@	c #162B16",
"N@	c #050505",
"O@	c #294429",
"P@	c #E4EDE4",
"Q@	c #A1B8A1",
"R@	c #345733",
"S@	c #E0EBE0",
"T@	c #1D391C",
"U@	c #2D382D",
"V@	c #304A30",
"W@	c #060806",
"X@	c #020302",
"Y@	c #304C30",
"Z@	c #B8CFB8",
"`@	c #3E5C3E",
" #	c #202720",
".#	c #081B07",
"+#	c #0F2A0F",
"@#	c #122F12",
"##	c #183117",
"$#	c #030403",
"%#	c #1E381E",
"&#	c #5C845B",
"*#	c #1C2F1B",
"=#	c #1A2419",
"-#	c #20331F",
";#	c #314931",
">#	c #416040",
",#	c #071207",
"'#	c #B1CAB1",
")#	c #0D210D",
"!#	c #080F07",
"~#	c #1D381D",
"{#	c #B0C9AF",
"]#	c #DAE7DA",
"^#	c #CDDECD",
"/#	c #111E11",
"(#	c #2C472B",
"_#	c #A0BD9F",
":#	c #D2E1D2",
"<#	c #9DB69C",
"[#	c #2C3B2C",
"}#	c #1D261D",
"|#	c #173416",
"1#	c #5B845A",
"2#	c #112210",
"3#	c #040404",
"4#	c #2E492C",
"5#	c #CBDBCB",
"6#	c #5F815E",
"7#	c #0E170E",
"8#	c #0C100C",
"9#	c #112611",
"0#	c #2A4E2A",
"a#	c #151C15",
"b#	c #243F23",
"c#	c #50634F",
"d#	c #030603",
"e#	c #2A2D2A",
"f#	c #989897",
"g#	c #969696",
"h#	c #252525",
"i#	c #2B472A",
"j#	c #AEC7AE",
"k#	c #B4CBB4",
"l#	c #BAC5BA",
"m#	c #1F2A1E",
"n#	c #939393",
"o#	c #929293",
"p#	c #919191",
"q#	c #294328",
"r#	c #A3BEA2",
"s#	c #8B948B",
"t#	c #0D100D",
"u#	c #8C8B8C",
"v#	c #2C2C2C",
"w#	c #274227",
"x#	c #A2BEA1",
"y#	c #A3BFA2",
"z#	c #95AF95",
"A#	c #545754",
"B#	c #818182",
"C#	c #7D7D7D",
"D#	c #7F7F7F",
"E#	c #0F0F0F",
"F#	c #244024",
"G#	c #89AB88",
"H#	c #AEC6AD",
"I#	c #8D9F8D",
"J#	c #1E211E",
"K#	c #797979",
"L#	c #717171",
"M#	c #7C7C7C",
"N#	c #111511",
"O#	c #294528",
"P#	c #788078",
"Q#	c #7A7A7A",
"R#	c #686968",
"S#	c #767676",
"T#	c #30422F",
"U#	c #C0CEBF",
"V#	c #545454",
"W#	c #757574",
"X#	c #616161",
"Y#	c #6E6E6D",
"Z#	c #243D24",
"`#	c #A5A6A5",
" $	c #1D1E1D",
".$	c #6D6D6D",
"+$	c #5A5A5B",
"@$	c #636263",
"#$	c #252825",
"$$	c #6B776A",
"%$	c #8D8D8D",
"&$	c #3B3B3B",
"*$	c #565656",
"=$	c #5A5A5A",
"-$	c #575757",
";$	c #0C0C0C",
"                                                                                        . + @ # ",
"                                                                                      $ % & * = ",
"                                                                                  - ; > , ' ) ! ",
"                                                                                - ~ { ] ^ / ( _ ",
"                                                                              - : < [ ^ } | 1 - ",
"            -                     2 3 4 -                                   - 5 6 7 ^ 8 9 0 -   ",
"          - a b -             - c d e f #                                 g h i ) j k l m -     ",
"          - n - o -         - p q r s t                                 u v w x y ^ z A -       ",
"            B C D E       _ F e G H I -                             - J K L M N O P Q R -       ",
"            S T U V W - X Y Z r w ` -                             -  ...w M +.) @.#.$.-         ",
"          %.&.*.=.-.;.>.,.'.z ).!.-                             - ~.{.w y N +.] P ].-           ",
"          %.^././.(._.:.<.G ) [.-                             - }.|.1.y ^ N ] 2.3.-             ",
"            4.5.6.7.8.9.0.L a.b.                            - c.d.e.O <.'.<.f.g.h.-             ",
"            - i.j.).k./.l.m.n.-                           - o.p.k q.y r.s.t.u.v.-               ",
"          - w.x.'.y.z.P e.p.A.B.C.-                     g D.E.0.) j ) F.G.l N H.I.J.-           ",
"        - K.L.0.y.N M.N.O.] P.Q./.R.= W               S.T.U.V.L j +.j W.X.Y.] Z.] `. +          ",
"        .+++).r y @+#+- $+%+&+0.y.*+=+-+;+>+-     - ,+'+)+k.!+^ ) y W.~+{+]+^+|./+(+_+          ",
"      :+<+w [+&+}+|+- - - 1+2+3+4+5+8 j 6+7+>+8+- 9+0+a+b+k.4+q.q.z.c+d+e+- f+g+h+i+-           ",
"    j+k+y.y.l+m+-         - - n+o+^ ^ p+O d.(.q+r+s+e V.r N O O y.Q.t+u+- -   - - -             ",
"  v+w+w w x+y+-               - z+A+B+Z C+b+Y.D+G.s.E+F+y.] ] f.G+G.e H+- - -                   ",
"I+J+K+L+M+-                       - N+O+P+k U.Q+).X.P.E.t.U.R+S+T+M U+V+G W+X+                  ",
"Y+Z+`+ @-                           - .@+@U @@w #@F+!+z Q+E+$@<.%@&@*@) y =@-@-                 ",
"    -                                 - ;@>@,@'@e k.|.O.)@!@] >@~@{@]@^@/@(@.                   ",
"                                    - _@#@:@N y.d.Q.<@[@P+Y.E.2.}@|@1@2@3@4@-                   ",
"                                  - 5@6@k.a+7@) y 4+k.8@9@t+0@$@a@b@c@d@- -                     ",
"                                - e@f@V.9@k.i 1.r z.g@h@}@=+8@8 T+) q.e C -                     ",
"                              - i@f@k.*+0.) 4+Z )@0@' j@k@l@-.m@<@S+n@o@p@4 -                   ",
"                            - q@$@7@7@z N ) r@f.s@k.t@u@- - v@w@x@y@[@W.z@A@#                   ",
"                          W B@C@7@0.) j +.P D@E@U+G+W.F@G@H@- - &.I@J@K@L@M@W                   ",
"                        N@O@C@K+r.+.j M s@S+P@Q@R@t.z.S@[@T@-     - - U@V@W@                    ",
"                      X@Y@>@Z z y.)+k.7@Z@S@`@H@ #.#+#U.@###-         - -                       ",
"                    $#%#Y.[+N j j r e.7.&#*#- - - =#-#;#>#,#-                                   ",
"                  f+T.[@r j +.N '#'#L V+:@)#!#-   - - - - -                                     ",
"                f+~#:.) ^ ) x {#g@]#(.k ^#h@#@/#-                                               ",
"              Y+(#k P.q.q._#D@:#<#[#}#|#1#V.U 2#-                                               ",
"            3#4#V.M ^ 5#r@Z@S@6#7#- - 8#9#P+0#a#                                                ",
"          3#b#e.z.^ ^ R+, :#c#d#-     - - e#8#-                         f#- g#h#    f#- g#h#    ",
"        N@i#b@j#M k#g@P.l#m#- -                                         n#o#p#-     n#o#p#-     ",
"      %.q#G r#_#] !@, s#t#-                                               u#v#        u#v#      ",
"    %.w#6+x#^ y#o@z#A#- -                                               B#C#D#E#    B#C#D#E#    ",
"  X@F#'.1.G#^ H#I#J#-                                                   K#L#M#-     K#L#M#-     ",
"N#O#r.M r@s@+.P#|+-                                                     Q#R#S#-     Q#R#S#-     ",
"T#1.R+s@Z@U#V#-                                                         W#X#Y#-     W#X#Y#-     ",
"Z#_#U+~+`# $-                                                           .$+$@$-     .$+$@$-     ",
"#$$$%$&$- -                                                             X#*$=$-     X#*$=$-     ",
"  - - -                                                                 -$*$*$ @    -$*$*$ @    ",
"                                                                          *$;$        *$;$      ",
"                                                                                                "};
